<svg width="55" height="55" viewBox="0 0 55 55" fill="none" xmlns="http://www.w3.org/2000/svg">
<g id="Frame 2">
<path id="state outline" d="M55 27.5C55 42.6878 42.6878 55 27.5 55C12.3122 55 3.66648e-07 42.6878 3.66648e-07 27.5C3.66648e-07 12.3122 12.3122 0 27.5 0C42.6878 0 55 12.3122 55 27.5Z" fill="#313338"/>
<path id="state" d="M44 28C44 37.3888 36.3888 45 27 45C17.6112 45 10 37.3888 10 28C10 18.6112 17.6112 11 27 11C36.3888 11 44 18.6112 44 28Z" fill="#80848E"/>
<path id="state inside" d="M35 28C35 32.4183 31.4183 36 27 36C22.5817 36 19 32.4183 19 28C19 23.5817 22.5817 20 27 20C31.4183 20 35 23.5817 35 28Z" fill="#313338"/>
</g>
</svg>